<svg width="35" height="70" viewBox="0 0 35 70" fill="none" xmlns="http://www.w3.org/2000/svg">
<path d="M17.5001 1.45837C10.2813 1.45837 5.10425 7.36462 5.10425 14.5834C5.10425 21.8021 13.4897 30.1146 16.4792 33.1042C16.609 33.2457 16.7668 33.3586 16.9425 33.4358C17.1182 33.5131 17.3081 33.553 17.5001 33.553C17.692 33.553 17.8819 33.5131 18.0576 33.4358C18.2334 33.3586 18.3911 33.2457 18.5209 33.1042C21.5105 30.1146 29.8959 21.948 29.8959 14.5834C29.8959 7.21879 24.7188 1.45837 17.5001 1.45837ZM21.6563 13.6355L20.1251 15.0938L20.4897 17.3542C20.4991 17.4893 20.4741 17.6245 20.4171 17.7474C20.3602 17.8702 20.273 17.9766 20.1638 18.0567C20.0546 18.1367 19.927 18.1879 19.7927 18.2053C19.6584 18.2227 19.5219 18.2059 19.3959 18.1563L17.5001 16.7709L15.6042 18.1563C15.4782 18.2059 15.3417 18.2227 15.2075 18.2053C15.0732 18.1879 14.9455 18.1367 14.8363 18.0567C14.7271 17.9766 14.64 17.8702 14.583 17.7474C14.526 17.6245 14.5011 17.4893 14.5105 17.3542L14.8751 15.0938L13.3438 13.6355C13.2518 13.5302 13.1889 13.4027 13.1614 13.2656C13.1338 13.1285 13.1426 12.9866 13.1868 12.8539C13.231 12.7213 13.3091 12.6025 13.4134 12.5094C13.5177 12.4162 13.6445 12.352 13.7813 12.323L15.8959 12.0313L16.8438 9.91671C16.9035 9.79343 16.9968 9.68946 17.1128 9.61671C17.2289 9.54396 17.3631 9.50538 17.5001 9.50538C17.6371 9.50538 17.7713 9.54396 17.8873 9.61671C18.0034 9.68946 18.0966 9.79343 18.1563 9.91671L19.1042 12.0313L21.2188 12.323C21.3556 12.352 21.4824 12.4162 21.5867 12.5094C21.691 12.6025 21.7691 12.7213 21.8134 12.8539C21.8576 12.9866 21.8663 13.1285 21.8388 13.2656C21.8113 13.4027 21.7484 13.5302 21.6563 13.6355Z" fill="#FFDD2D"/>
</svg>
