<svg xmlns="http://www.w3.org/2000/svg" width="180" height="180" viewBox="0 0 180 180" fill="none">
<rect width="180" height="180" rx="40" fill="#0D2D6A"/>
<path fill-rule="evenodd" clip-rule="evenodd" d="M165.938 79.364L159.42 79.57C158.866 79.57 154.863 79.4558 150.977 76.651C151.268 76.6775 151.557 76.7203 151.854 76.7203C155.851 76.7203 159.725 74.3255 161.274 70.8944L164.078 64.7013C160.559 64.7482 157.345 64.3055 157.345 64.3055C157.319 64.3035 154.783 63.9771 151.852 60.9968C149.751 58.8611 147.148 57.7289 144.332 57.7289C143.098 57.7289 141.997 57.9513 141.046 58.2511C141.196 57.7493 141.333 57.2393 141.415 56.7151C142.313 50.9177 138.568 46.4993 138.566 46.5034L133.659 40.4572L130.619 47.5601C130.609 47.5805 129.839 49.2471 128.467 50.0569C128.055 47.9701 127.035 45.6222 124.858 43.3824C120.754 39.1557 115.761 38.5233 113.148 38.5233C111.939 38.5233 111.074 38.6539 110.863 38.6886L104.943 39.8452C105.285 38.5315 106.015 36.2366 107.343 34.1723L110.611 29.1092L102.389 30.0394L99.7718 24.5052L94.7009 27.1061L90.0133 22.5L85.338 27.1061L80.2569 24.5052L77.6435 30.0394L69.4243 29.1072L72.6976 34.1743C74.0279 36.2366 74.7535 38.5254 75.0917 39.8391L69.4427 38.7314L69.248 38.6988C68.9672 38.6539 68.1084 38.5233 66.8909 38.5233C64.2796 38.5233 59.2845 39.1557 55.1913 43.3803C53.0125 45.6201 51.9897 47.9701 51.5737 50.0569C50.2106 49.2532 49.4461 47.6151 49.4461 47.6151L46.4003 40.4714L41.4196 46.5544C40.8088 47.3377 37.8101 51.493 38.6238 56.7212C38.7078 57.2434 38.8452 57.7493 38.9927 58.2511C38.0478 57.9472 36.9451 57.7289 35.7132 57.7289C32.8949 57.7289 30.2939 58.8611 28.1868 60.9968C25.264 63.9649 23.2752 64.1735 22.7675 64.2994C22.2598 64.4253 20.1009 64.7767 15.9748 64.7013L18.7665 70.8944C20.3161 74.3255 24.192 76.7203 28.1827 76.7203C28.484 76.7203 28.771 76.6775 29.0661 76.651C25.1882 79.4558 21.1851 79.57 20.7014 79.5721L14.0625 79.364L16.0732 85.6428C17.0858 88.8781 20.4698 94.2369 26.9447 94.8141C26.2396 97.7516 24.6778 101.046 21.2466 102.466L16.3007 104.493L18.9981 109.169C20.519 111.69 24.0977 114.64 29.1871 114.64C30.2857 114.636 31.3474 114.526 32.3723 114.309C32.6346 115.462 32.9605 116.617 33.3479 117.763C34.8626 122.253 33.557 125.382 33.5426 125.417L31.0994 130.508L36.5516 131.938C36.6192 131.959 38.2671 132.409 40.3291 132.409C41.2638 132.409 42.1615 132.313 42.9958 132.114C43.6291 131.967 44.2399 131.771 44.8241 131.534C45.5312 132.793 46.388 133.943 47.3862 134.973C50.8809 138.541 55.8329 140.349 62.1029 140.349H62.1234L66.5998 140.291L57.3517 144.12L64.3739 147.498C66.9278 148.735 69.949 150.197 73.0317 151.317L72.1524 153.706L74.5751 154.803C74.7904 154.901 79.4452 156.972 87.1807 157.414C87.1807 157.414 89.05 157.5 90.0789 157.5C91.1058 157.5 92.9505 157.408 92.9505 157.408C100.639 156.955 105.257 154.901 105.472 154.803L107.899 153.702L107.013 151.311C110.18 150.158 113.318 148.637 115.765 147.447L122.654 144.116L113.437 140.291L117.932 140.349C124.212 140.349 129.164 138.539 132.653 134.967C133.647 133.945 134.502 132.799 135.213 131.534C135.799 131.771 136.414 131.967 137.049 132.118C137.884 132.313 138.777 132.409 139.712 132.409C141.739 132.409 143.403 131.965 143.448 131.95L148.923 130.508L146.537 125.51C146.482 125.382 145.176 122.253 146.693 117.759C147.076 116.612 147.4 115.458 147.665 114.309C148.694 114.526 149.768 114.636 150.876 114.64C157.36 114.64 160.467 110.103 161.067 109.116L163.74 104.489L158.794 102.47C155.355 101.046 153.797 97.7536 153.1 94.8182C159.491 94.2634 162.92 88.9005 163.968 85.6448L165.938 79.364Z" fill="#FEFEFE"/>
<path fill-rule="evenodd" clip-rule="evenodd" d="M102.539 104.107H67.4873V83.9731C67.4873 82.023 66.9134 80.0626 66.2349 78.2512H82.0318C83.5342 79.7363 85.0038 80.6624 86.4038 81.1703C86.2234 81.8863 85.9815 83.3652 86.6559 84.8421C87.2072 86.0314 88.2034 86.9473 89.6484 87.5592C89.8021 89.028 90.7409 91.2392 93.3214 92.2163C92.1879 93.3525 91.0893 94.4235 90.6445 94.8539L80.1584 94.6887C79.9206 94.5703 79.5148 94.3031 79.3344 93.9278C79.3234 93.8992 79.3088 93.8778 79.2938 93.8558C79.281 93.8369 79.2679 93.8176 79.2565 93.7931L80.968 94.0685C81.0049 94.0726 81.0418 94.0726 81.0787 94.0726C81.4087 94.0726 81.6977 93.8462 81.751 93.5096C81.8063 93.1302 81.5542 92.7834 81.1853 92.7283L79.0782 92.3979L81.4148 84.3689L79.2012 79.7363L75.6573 83.4652L75.4421 91.8124L73.0604 91.4371C72.6914 91.3657 72.3409 91.6309 72.2753 92.0021C72.22 92.3693 72.47 92.7181 72.8431 92.7834L73.8433 92.9344C73.4867 93.1363 73.251 93.2975 73.2223 93.3199L73.0194 93.4606L72.964 93.7095C72.384 96.0513 73.6937 98.2748 75.1121 99.2682L75.0588 99.564C75.0014 99.923 75.0854 100.274 75.3027 100.57C75.5097 100.87 75.8213 101.049 76.18 101.112C76.2517 101.127 76.3296 101.133 76.4013 101.133C77.0121 101.133 77.5491 100.71 77.6967 100.09C78.2255 100.156 78.7093 100.166 79.0393 100.166H79.316L93.0734 102.642L93.3091 102.487C94.4016 101.726 98.5829 98.697 99.9521 97.6893C100.327 98.0137 100.749 98.3034 101.26 98.5461C100.813 100.027 100.786 102.306 102.539 104.107ZM67.4872 105.465H112.551L112.56 122.335C112.56 127.927 109.262 131.831 104.062 133.104L104.933 128.59L104.944 128.526C104.989 128.274 105.038 127.992 105.074 127.753C105.32 127.855 105.581 127.941 105.859 127.992C106.185 128.053 106.484 128.084 106.759 128.084C108.087 128.084 108.862 127.388 109.377 126.794L110.045 126.019L109.499 125.171C109.45 125.087 108.239 123.186 107.312 121.884C107.13 121.629 106.956 121.372 106.78 121.099C105.722 119.524 104.398 117.554 101.748 117.554L101.508 117.558C101.073 117.586 100.698 117.67 100.393 117.786C99.5606 117.401 98.6977 117.197 97.8061 117.197C96.7095 117.197 95.7851 117.497 95.1702 117.707C95.1158 117.722 95.0632 117.739 95.0128 117.754C94.8997 117.789 94.7975 117.821 94.7111 117.835L89.7549 117.35C89.6935 117.34 89.4885 117.221 89.2425 116.93V116.905L90.3145 116.477C90.0132 112.921 86.5841 110.734 84.6697 109.994C84.5857 109.637 84.4135 109.282 84.1142 108.992L83.0484 107.987L82.1117 109.102L81.6505 109.674L74.7062 106.834L79.2258 112.479L77.4446 115.165C76.7907 115.857 77.5102 116.546 77.5102 116.546L79.3528 117.811L81.2611 117.101C81.3078 117.101 81.3497 117.108 81.3921 117.115C81.411 117.118 81.43 117.121 81.4497 117.123C81.3968 117.284 81.3363 117.71 81.2796 118.11C81.2351 118.423 81.1929 118.72 81.1586 118.859L77.8443 118.211L74.3639 120.167C72.5745 121.476 72.3306 123.639 72.9947 125.12L73.3801 125.96L73.9273 127.147L75.1489 126.646C75.1653 126.644 75.1817 126.635 75.1899 126.627C74.7534 128.018 74.9317 129.342 75.7106 130.209L76.4525 131.133L77.4364 132.369L78.5166 131.217C78.8322 130.903 79.8652 129.752 80.1829 128.771L80.4146 128.018L79.8898 127.439L79.7997 127.337L80.3961 126.362L84.7209 127.376L85.6925 127.6L86.209 126.75L86.4919 126.287C86.5452 126.187 86.5574 126.172 86.7583 126.172C86.91 126.172 87.0637 126.187 87.2297 126.225C88.8633 126.531 90.3678 126.684 91.7021 126.684C92.9996 126.684 93.7744 126.635 94.6947 126.331C94.6947 126.331 97.017 128.957 97.0969 129.053L95.6765 133.424L95.6109 133.685C92.9196 133.903 91.6079 134.491 90.0235 136.066C87.7237 133.795 86.0901 133.555 79.9062 133.555C72.5028 133.555 67.4872 129.234 67.4872 122.335V105.465Z" fill="#FFDD2D"/>
<path fill-rule="evenodd" clip-rule="evenodd" d="M80.3591 34.8867L79.1785 34.7622L78.0552 34.6276C78.5718 35.7862 78.9509 36.8857 79.2236 37.7955C82.214 36.1453 86.0818 35.2049 90.0131 35.2049C93.9648 35.2049 97.8346 36.1453 100.815 37.7955C101.085 36.8857 101.467 35.7862 101.983 34.6276L100.856 34.7622L99.6732 34.8867L99.1751 33.8157L97.6686 30.6498L94.922 32.0716L93.8521 32.6142L92.9974 31.7738L90.0131 28.8363L87.0349 31.7738L86.1843 32.6142L85.1143 32.0716L82.3555 30.6498L80.8674 33.8157L80.3591 34.8867ZM101.863 40.4538C99.528 38.5975 95.2975 36.8534 90.0134 36.8534C84.7375 36.8534 80.5234 38.5975 78.1724 40.4538C78.1724 40.4538 77.4817 36.2965 75.1122 32.6308L79.3674 33.1122L81.5913 28.4041L85.8772 30.5991L90.0134 26.5193L94.164 30.5991L98.4396 28.4041L100.668 33.1122L104.927 32.6308C102.555 36.2965 101.863 40.4538 101.863 40.4538ZM81.9164 112.784C81.6603 112.76 81.4473 112.96 81.4268 113.208C81.4084 113.467 81.6009 113.688 81.8611 113.694C82.113 113.714 82.3302 113.523 82.3548 113.268C82.365 113.023 82.1786 112.794 81.9164 112.784ZM102.806 148.157L100.748 142.521C103.195 141.781 107.407 140.186 109.292 139.123L108.036 143.225L112.301 144.634C109.721 145.923 106.593 147.125 102.806 148.157ZM90.0242 153.223C85.064 153.223 79.4028 152.088 77.7343 151.497L80.2677 144.673C82.3686 145.285 86.7447 145.932 89.9176 145.912H89.9258H90.0242H90.1103H90.1205C93.2914 145.932 97.6613 145.285 99.7745 144.673L102.304 151.497C100.635 152.088 94.9742 153.223 90.0242 153.223ZM67.7357 144.634L72.0067 143.224L70.7422 139.123C72.6257 140.185 76.8434 141.78 79.2864 142.521L77.2267 148.156C73.4536 147.124 70.3118 145.923 67.7357 144.634ZM112.493 143.382L109.896 142.393L110.613 139.721L111.402 136.812C111.402 136.812 106.803 139.296 100.32 141.161C98.4813 141.685 97.0895 141.924 97.0895 141.924V143.906C97.0895 143.906 93.6215 144.506 90.1206 144.506H90.0776H90.0243H89.9567H89.9177C86.4107 144.506 82.9488 143.906 82.9488 143.906V141.924C82.9488 141.924 81.555 141.685 79.7185 141.161C73.2354 139.296 68.642 136.812 68.642 136.812L69.4189 139.721L70.1486 142.393L67.5455 143.382L64.6575 144.457C64.9743 144.61 65.3028 144.769 65.6417 144.933C68.841 146.481 72.9569 148.473 76.7526 149.506L75.7626 152.199C75.7626 152.199 81.0877 154.614 89.9567 154.636V154.64H89.9833H90.0243H90.0571H90.0776V154.636C98.9588 154.614 104.278 152.199 104.278 152.199L103.284 149.506C107.111 148.464 111.269 146.448 114.472 144.894C114.782 144.744 115.084 144.598 115.375 144.457L112.493 143.382ZM156.989 106.78C156.989 106.78 155.151 109.966 150.929 109.966H150.877C145.808 109.936 143.767 106.86 143.767 106.86C143.767 106.86 144.058 110.862 142.234 116.261C140.037 122.775 142.254 127.424 142.254 127.424C142.254 127.424 141.068 127.742 139.707 127.742C139.186 127.742 138.643 127.691 138.128 127.56C133.896 126.557 132.842 122.722 132.842 122.722C132.842 122.722 133.23 135.675 118.056 135.675H117.937C117.937 135.675 119.275 133.864 119.669 128.658C120.39 119.048 126.929 117.726 126.929 117.726C126.929 117.726 123.438 117.289 121.928 115.941C119.56 113.809 119.728 111.343 119.728 111.343C125.068 111.27 128.567 109.46 131.231 106.394C134.119 103.071 134.591 99.4914 134.591 99.4914C134.591 99.4914 131.721 102.08 126.17 102.08C125.683 102.08 125.162 102.058 124.625 102.005C121.999 101.794 120.183 100.132 120.183 100.132C125.961 96.4459 130.016 90.01 126.421 80.3205C123.541 72.5567 116.621 66.7553 109.652 62.3858C107.334 60.9457 106.043 59.3423 106.043 57.9654C106.043 55.9765 107.784 55.1674 109.569 54.3376C110.697 53.8133 111.843 53.2808 112.579 52.4373C114.774 49.9017 113.397 45.7954 111.497 43.321C111.497 43.321 112.136 43.1904 113.147 43.1904C115.153 43.1904 118.624 43.6902 121.475 46.6358C125.262 50.5341 123.692 54.7831 123.692 54.7831L124.707 54.979C125.285 55.1015 125.862 55.1294 126.456 55.1583L126.543 55.1626C126.611 55.1626 126.68 55.1646 126.748 55.1666C126.817 55.1687 126.886 55.1707 126.953 55.1707C132.455 55.1707 134.914 49.4447 134.914 49.4447C134.914 49.4447 140.764 56.6048 132.151 62.2185C130.669 63.1793 130.016 64.0708 130.188 65.0152L130.321 65.6394L130.934 65.7476C136.905 67.359 140.056 71.3512 143.692 75.9577L143.694 75.9601L143.714 75.985L143.726 75.9996L143.73 76.0048L143.741 76.0187L143.752 76.0334L143.76 76.0428C143.903 76.2249 144.048 76.4078 144.193 76.5916C150.053 84.0025 158.338 84.2412 159.361 84.2412H159.474C159.474 84.2412 157.582 90.1834 152.009 90.1834C151.914 90.1834 151.834 90.1834 151.744 90.1773C149.184 90.0855 147.87 89.1125 147.87 89.1125C147.87 89.1125 146.872 102.598 156.989 106.78ZM152.01 92.0032C158.844 92.0032 161.131 85.0839 161.223 84.7881L161.988 82.3484L159.426 82.428H159.417C158.514 82.428 150.971 82.2301 145.627 75.4678L145.123 74.8416L145.097 74.8083C141.614 70.4 138.303 66.2101 132.394 64.2974C132.567 64.1444 132.811 63.9547 133.147 63.7364C136.291 61.6823 138.119 59.1814 138.578 56.2806C139.251 51.9173 136.451 48.4352 136.328 48.2945L134.426 45.9547L133.237 48.731L133.235 48.7344C133.134 48.9573 131.134 53.3534 126.955 53.3534H126.639C126.565 53.3492 126.492 53.3452 126.419 53.3413C126.211 53.3301 126.006 53.319 125.807 53.3024C125.954 51.3217 125.592 48.2516 122.792 45.3693C119.428 41.9035 115.304 41.3813 113.148 41.3813C112.132 41.3813 111.417 41.4924 111.204 41.5256C111.175 41.53 111.156 41.5331 111.145 41.5343L108.272 42.1014L110.047 44.4268C111.434 46.2199 112.697 49.5286 111.201 51.2543C110.75 51.7743 109.848 52.2015 108.957 52.6235L108.799 52.6986C106.866 53.5839 104.22 54.8221 104.22 57.9656C104.22 59.9973 105.806 62.127 108.682 63.9363C117.19 69.2605 122.441 74.8192 124.708 80.9531C128.217 90.3897 123.638 95.7729 119.197 98.6084L117.2 99.8833L118.944 101.479L118.946 101.48C119.191 101.694 121.32 103.558 124.468 103.826C125.067 103.863 125.637 103.898 126.172 103.898C128.191 103.898 129.914 103.582 131.314 103.155C130.929 103.826 130.453 104.514 129.861 105.201C127.319 108.129 124.194 109.461 119.701 109.534L118.03 109.561L117.903 111.227C117.887 111.564 117.76 114.654 120.701 117.284C121.15 117.692 121.693 118.026 122.265 118.297C120.269 120.084 118.243 123.197 117.852 128.525C117.52 132.976 116.456 134.621 116.442 134.639L114.595 137.444L117.932 137.489C123.444 137.489 127.662 135.977 130.587 132.976C132.317 131.202 133.305 129.197 133.889 127.424C134.846 128.238 136.084 128.952 137.701 129.331C138.314 129.474 138.982 129.549 139.708 129.549C141.222 129.549 142.5 129.238 142.699 129.19L142.713 129.186L144.842 128.623L143.901 126.647L143.897 126.637C143.783 126.371 142.085 122.433 143.967 116.853C144.791 114.403 145.211 112.21 145.416 110.503C146.759 111.197 148.554 111.772 150.876 111.78C156.07 111.78 158.403 107.974 158.569 107.704L158.575 107.694L159.614 105.895L157.69 105.105C151.405 102.509 150.016 95.5363 149.737 91.7645C150.305 91.8727 150.954 91.9726 151.686 91.993L152.01 92.0032ZM148.491 64.2771C147.087 62.8328 145.603 62.4024 144.33 62.4024C142.352 62.4024 140.87 63.4428 140.87 63.4428C143.742 64.9639 145.38 66.9815 146.756 68.6763C147.928 70.1203 148.91 71.3299 150.303 71.7982C150.817 71.9756 151.336 72.0532 151.854 72.0532C154.088 72.0532 156.245 70.615 156.991 68.975C156.991 68.975 152.896 68.7261 148.491 64.2771ZM145.337 69.8176C144.035 68.2122 142.549 66.4008 140.001 65.0504L137.384 63.649L139.815 61.9457L139.846 61.9257C140.163 61.724 141.95 60.5871 144.33 60.5871C146.357 60.5871 148.241 61.4173 149.797 62.9942C153.58 66.8394 156.981 67.1494 157.104 67.1535L159.746 67.3086L158.653 69.7197C157.569 72.1247 154.706 73.8607 151.855 73.8607C151.121 73.8607 150.405 73.7505 149.733 73.52C147.855 72.9015 146.648 71.4235 145.384 69.8759L145.337 69.8176ZM141.198 89.0725V89.1643C139.664 76.8474 130.679 67.9515 120.676 62.5458C119.754 62.0521 118.897 61.636 118.071 61.2361C121.113 61.7053 126.018 61.7604 129.801 58.4945C129.801 58.4945 124.011 62.7334 112.15 58.8821C113.101 59.4969 114.314 60.1851 115.698 60.9707C119.086 62.8935 123.502 65.3999 127.639 68.8409C142.2 81.5759 131.783 93.9968 131.783 93.9968C137.014 88.5605 137.231 82.7407 135.692 77.9837C138.449 82.551 140.212 88.0893 139.935 94.9209C139.533 104.71 134.13 113.174 128.44 119.975C125.706 123.277 125.097 127.333 125.097 127.333C125.097 127.333 126.202 123.753 129.365 120.071C135.458 112.968 140.673 105.594 141.353 94.9617C141.985 96.8914 144.582 102.252 148.699 104.272C148.699 104.272 143.524 101.169 141.198 89.0725ZM47.1908 122.722C47.1908 122.722 46.8034 135.675 61.9792 135.675H62.0879C62.0879 135.675 60.7597 133.864 60.3702 128.658C59.6488 119.046 53.1062 117.726 53.1062 117.726C53.1062 117.726 56.5988 117.29 58.1135 115.941C60.4748 113.809 60.3067 111.343 60.3067 111.343C54.9673 111.27 51.4726 109.46 48.7896 106.394C45.92 103.072 45.4445 99.4915 45.4445 99.4915C45.4445 99.4915 48.314 102.08 53.8584 102.08C54.3565 102.08 54.873 102.058 55.41 102.005C58.0418 101.795 59.8599 100.132 59.8599 100.132C54.0736 96.4459 50.0214 90.0121 53.6124 80.3206C56.4902 72.5568 63.4079 66.7553 70.3809 62.3859C72.697 60.9457 73.9863 59.3424 73.9863 57.9654C73.9863 55.9768 72.2478 55.1676 70.4642 54.3374C69.337 53.8128 68.1918 53.2797 67.456 52.4353C65.2628 49.9017 66.6361 45.7934 68.5321 43.3211C68.5321 43.3211 67.9028 43.1905 66.8882 43.1905C64.8836 43.1905 61.4156 43.6903 58.5624 46.6359C54.7644 50.5341 56.3426 54.7832 56.3426 54.7832L55.328 54.979C54.7637 55.0986 54.1941 55.1281 53.6191 55.1579L53.4895 55.1647C53.418 55.1647 53.3507 55.1662 53.2841 55.1678L53.2839 55.1678C53.2189 55.1693 53.1546 55.1708 53.0877 55.1708C47.57 55.1708 45.1227 49.4469 45.1227 49.4469C45.1227 49.4469 39.2749 56.6048 47.8877 62.2186C49.3696 63.1774 50.0214 64.0688 49.8472 65.0153L49.716 65.6395L49.0888 65.7476C43.1208 67.3629 39.9657 71.3588 36.3221 75.9734C36.1603 76.1783 35.9976 76.3845 35.8335 76.5917C29.9797 84.0026 21.699 84.2413 20.67 84.2413H20.5552C20.5552 84.2413 22.4471 90.1835 28.0243 90.1835C28.1124 90.1835 28.1964 90.1835 28.2887 90.1774C30.8528 90.0856 32.1667 89.1125 32.1667 89.1125C32.1667 89.1125 33.1567 102.598 23.0476 106.78C23.0476 106.78 24.8883 109.964 29.1085 109.964H29.1577C34.2307 109.936 36.2701 106.86 36.2701 106.86C36.2701 106.86 35.975 110.862 37.793 116.261C39.9923 122.775 37.7869 127.424 37.7869 127.424C37.7869 127.424 38.9634 127.742 40.3285 127.742C40.8553 127.742 41.3964 127.691 41.9026 127.558C46.1332 126.557 47.1908 122.722 47.1908 122.722ZM63.5889 134.628C63.592 134.633 63.5937 134.636 63.5939 134.637L65.4407 137.444L62.1038 137.489C56.5922 137.489 52.3781 135.975 49.445 132.977C47.7212 131.202 46.7292 129.197 46.1491 127.424C45.1981 128.238 43.9478 128.952 42.3306 129.331C41.7239 129.474 41.0536 129.549 40.3301 129.549C38.7845 129.549 37.4748 129.224 37.3269 129.187L37.3253 129.186L35.1915 128.623L36.1364 126.647L36.1429 126.632C36.2758 126.319 37.9427 122.396 36.0688 116.853C35.2448 114.401 34.8247 112.21 34.6197 110.503C33.2771 111.197 31.4837 111.772 29.1757 111.778C23.935 111.778 21.5978 107.92 21.4635 107.699L21.4608 107.694L20.4236 105.893L22.3421 105.105C28.6264 102.509 30.0202 95.5363 30.3051 91.7646C29.7271 91.8727 29.0774 91.9727 28.3559 91.9931L28.0259 92.0033C21.1881 92.0033 18.9069 85.0839 18.8167 84.7882L18.0337 82.3484L20.6081 82.428C21.512 82.428 29.0671 82.2301 34.4065 75.4679L34.9107 74.8416L34.9466 74.7962C38.4261 70.3924 41.7319 66.2084 47.6433 64.2975C47.4712 64.1445 47.2355 63.9548 46.8932 63.7365C43.7489 61.6823 41.9186 59.1814 41.4636 56.2807C40.7959 51.9998 43.4823 48.5672 43.6867 48.3061L43.6957 48.2945L45.6183 45.9548L46.803 48.731C46.8788 48.9065 48.8711 53.3534 53.0893 53.3534H53.3988C53.4697 53.3494 53.5398 53.3456 53.6092 53.3418L53.6093 53.3418L53.6094 53.3418L53.6094 53.3418L53.6096 53.3418C53.8194 53.3304 54.0237 53.3193 54.2269 53.3024C54.0834 51.3197 54.4503 48.2537 57.2522 45.3673C60.6157 41.9035 64.7315 41.3813 66.8898 41.3813C67.9135 41.3813 68.6237 41.4933 68.8313 41.526C68.8581 41.5302 68.8766 41.5331 68.8862 41.5343L71.7742 42.1014L69.991 44.4269C68.5992 46.2179 67.3366 49.5286 68.835 51.2544C69.281 51.7688 70.1685 52.1906 71.0502 52.6097L71.0502 52.6097L71.2372 52.6986C73.1721 53.5839 75.81 54.8222 75.81 57.9656C75.81 59.9974 74.2359 62.127 71.3602 63.9364C62.8396 69.2605 57.5966 74.8192 55.3296 80.9532C51.8267 90.3897 56.3873 95.7709 60.8453 98.6084L62.8396 99.8834L61.0913 101.479C60.8556 101.687 58.7198 103.557 55.5633 103.826C54.9689 103.863 54.4032 103.898 53.86 103.898C51.8349 103.898 50.1214 103.582 48.7235 103.155C49.113 103.826 49.5885 104.512 50.1767 105.201C52.7163 108.127 55.8502 109.461 60.3288 109.534L62.0116 109.561L62.1243 111.227C62.1448 111.564 62.2719 114.654 59.3326 117.284C58.8817 117.692 58.3468 118.026 57.7667 118.297C59.7672 120.084 61.7923 123.197 62.1899 128.525C62.5174 132.81 63.5095 134.493 63.5889 134.628ZM31.5417 64.2748C32.9498 62.8326 34.4318 62.4001 35.7108 62.4001C37.6785 62.4001 39.1686 63.4405 39.1686 63.4405C36.3047 64.9607 34.6656 66.9742 33.2877 68.667C32.1084 70.1157 31.1204 71.3295 29.7196 71.7979C29.2194 71.9754 28.6988 72.0529 28.1802 72.0529C25.9481 72.0529 23.7857 70.6148 23.0479 68.9747C23.0479 68.9747 27.1431 68.7259 31.5417 64.2748ZM28.1794 73.8605C28.9131 73.8605 29.6264 73.7523 30.3028 73.5218C32.188 72.9005 33.3956 71.4192 34.6592 69.8692L34.7014 69.8174L34.7382 69.7724C36.0387 68.1802 37.5026 66.388 40.0306 65.0502L42.6542 63.6488L40.2171 61.9454L40.1843 61.9247C39.8643 61.7207 38.0851 60.5869 35.7099 60.5869C33.6786 60.5869 31.7929 61.4151 30.2372 62.994C26.4535 66.8412 23.0613 67.1513 22.9383 67.1533L20.2983 67.3083L21.3826 69.7195C22.471 72.1245 25.3344 73.8605 28.1794 73.8605ZM44.3437 77.9841C41.5848 82.5514 39.8221 88.0877 40.107 94.9213C40.5026 104.711 45.9055 113.176 51.5831 119.975C54.3297 123.274 54.9467 127.333 54.9467 127.333C54.9467 127.333 53.8316 123.753 50.671 120.069C44.5773 112.968 39.365 105.59 38.6763 94.9621C38.045 96.8919 35.4522 102.253 31.3405 104.272C31.3405 104.272 36.5119 101.17 38.8341 89.0709V89.1668C40.3734 76.8479 49.3572 67.9519 59.3617 62.5462C60.1842 62.104 60.9639 61.7224 61.7067 61.3589L61.9648 61.2325C58.9251 61.7058 54.0202 61.7609 50.2345 58.495C50.2345 58.495 56.0268 62.7339 67.8842 58.8826C66.9337 59.4965 65.7236 60.1837 64.3425 60.968L64.3424 60.9681C60.9557 62.8913 56.5408 65.3985 52.403 68.8413C37.8359 81.5764 48.2565 93.9993 48.2565 93.9993C43.0134 88.5609 42.8044 82.7391 44.3437 77.9841ZM86.5909 70.0004V72.4419C87.4374 71.418 89.0708 71.628 89.0708 71.628V75.1465C89.0708 75.1465 89.0154 76.8802 88.3965 77.6288H90.1713H91.9359C91.3272 76.8802 91.2637 75.1465 91.2637 75.1465V71.628C91.2637 71.628 92.9033 71.418 93.7415 72.4419V70.0004H90.1713H86.5909ZM86.8501 56.5627C86.7149 56.5188 86.0858 56.3147 85.0695 55.5136C83.1963 54.0675 83.1594 52.7355 83.1594 52.7355L87.3198 54.4754V56.7741L86.8771 56.5722C86.8748 56.5707 86.8657 56.5678 86.8502 56.5627L86.8501 56.5627ZM94.9615 55.5136C96.8408 54.0675 96.8777 52.7355 96.8777 52.7355L92.7153 54.4754V56.7741L93.1559 56.5722C93.1582 56.5707 93.1673 56.5678 93.1828 56.5627C93.318 56.5188 93.9469 56.3148 94.9615 55.5136ZM79.9927 45.4493L90.0136 49.3883L100.037 45.4493C99.19 43.44 95.2608 41.7347 90.0136 41.7285C84.7746 41.7347 80.8475 43.44 79.9927 45.4493ZM90.7495 65.2627L97.4867 61.7337L99.889 47.8726L90.7495 50.961V65.2627ZM104.739 67.3067L101.658 65.5279L98.4931 63.7226L90.0382 68.3042L90.0136 68.2858L89.9972 68.3042L81.5423 63.7226L78.3776 65.5279L75.2908 67.3067H75.258L74.4771 67.7575C76.2172 68.2348 77.5393 69.0916 78.6625 70.2298C78.6804 70.2468 78.6967 70.2654 78.7131 70.2842C78.7381 70.3128 78.7636 70.3419 78.7957 70.3665C79.0437 70.6317 79.2897 70.9213 79.5254 71.211C79.5357 71.2236 79.546 71.2359 79.5562 71.2482C79.6007 71.3018 79.6444 71.3544 79.6894 71.4191C79.9066 71.7047 80.126 72.0127 80.3391 72.3248C80.3658 72.3594 80.3918 72.3986 80.4186 72.439C80.4392 72.47 80.4603 72.5018 80.4826 72.5329C80.7368 72.9123 80.9766 73.3101 81.2143 73.718C83.4034 77.4776 86.9043 79.7255 90.0136 79.7296C93.1271 79.7255 96.6259 77.4776 98.819 73.718C99.0609 73.2999 99.3069 72.8919 99.561 72.5145C99.5979 72.4615 99.6389 72.4043 99.6737 72.3493C99.889 72.0249 100.116 71.7087 100.352 71.4048C100.378 71.3711 100.404 71.3384 100.429 71.3069C100.452 71.2774 100.475 71.2488 100.496 71.2212C100.74 70.9213 100.992 70.6296 101.248 70.3563C101.268 70.3377 101.287 70.3187 101.306 70.3002C101.327 70.2781 101.349 70.2568 101.371 70.238C102.488 69.1018 103.814 68.2348 105.554 67.7575L104.779 67.3067H104.739ZM112.546 83.9726C112.546 82.0225 113.115 80.0621 113.804 78.2507H98.0032C95.5846 80.6394 93.2623 81.5268 91.186 81.7308C90.8109 81.7695 90.4296 81.794 90.0443 81.794H90.0135H89.991C89.6057 81.794 89.2203 81.7695 88.8473 81.7308C88.4845 81.7002 88.1032 81.643 87.722 81.5553C87.5867 82.0939 87.4125 83.2138 87.9065 84.2827C88.3492 85.2475 89.2388 85.9676 90.5403 86.4449L90.9789 86.6143L90.9851 87.0834C90.9851 87.2242 91.0876 90.2677 94.4183 91.1122L94.4386 91.0915C94.9737 90.5428 95.46 90.0442 95.8223 89.6292C95.1418 88.032 95.4985 86.4041 96.4885 85.6065C96.4454 85.7759 96.0109 89.7679 99.2248 91.2509L99.7557 91.5039L99.5978 92.0669C99.5466 92.2342 98.4746 96.0977 102.367 97.5358L103.056 97.7929L102.752 98.4599C102.683 98.6109 101.158 102.115 104.753 104.104H112.552V97.9459C109.781 97.6072 108.604 95.3899 108.301 93.8171C107.014 93.5988 106.015 93.042 105.329 92.1403C103.868 90.222 104.837 88.4505 105.072 88.0204C105.1 87.9693 105.118 87.9372 105.12 87.9259C105.118 87.9443 105.12 90.0352 106.417 91.3244C107.057 91.9445 107.821 92.4279 108.969 92.5361L109.537 92.5891L109.588 93.1643C109.598 93.2888 109.908 96.1181 112.552 96.5608L112.546 83.9726ZM104.933 128.589L104.062 133.103C109.262 131.83 112.56 127.926 112.56 122.335L112.552 105.465H67.4855V122.335C67.4855 129.236 72.5031 133.554 79.9066 133.554C86.0925 133.554 87.722 133.795 90.0238 136.065C91.6082 134.491 92.9179 133.903 95.6112 133.685L95.6748 133.422L97.0972 129.056C97.0173 128.954 94.695 126.331 94.695 126.331C93.7727 126.635 92.9979 126.686 91.7025 126.686C90.3681 126.686 88.8616 126.531 87.2301 126.225C87.0661 126.188 86.9124 126.174 86.7587 126.174C86.5578 126.174 86.5475 126.188 86.4922 126.286L86.2114 126.749L85.6949 127.6L84.7192 127.375L80.3965 126.362L79.8041 127.337L79.8922 127.441L80.4149 128.018L80.1812 128.769C79.8656 129.752 78.8326 130.902 78.5169 131.216L77.4367 132.373L76.4529 131.133L75.7129 130.209C74.9361 129.342 74.7557 128.018 75.1944 126.625C75.1841 126.635 75.1657 126.641 75.1493 126.645L73.9297 127.147L73.3825 125.962L72.9951 125.121C72.331 123.638 72.5749 121.476 74.3643 120.166L77.8446 118.212L81.1589 118.861C81.1947 118.719 81.2378 118.414 81.283 118.094C81.3389 117.7 81.3979 117.283 81.45 117.123C81.4288 117.12 81.4081 117.117 81.3874 117.113C81.3459 117.106 81.3045 117.098 81.2594 117.098L79.3532 117.808L77.5105 116.548C77.5105 116.548 76.7931 115.854 77.4429 115.165L79.224 112.478L74.7086 106.834L81.6509 109.673L82.1141 109.102L83.0508 107.986L84.1146 108.992C84.4159 109.282 84.5881 109.636 84.6721 109.993C86.5824 110.732 90.0135 112.921 90.3169 116.478L89.2429 116.907V116.929C89.4909 117.221 89.6917 117.339 89.7553 117.351L94.7135 117.837C94.7957 117.821 94.8912 117.791 94.9977 117.759C95.0532 117.742 95.1116 117.724 95.1726 117.706C95.7854 117.5 96.7098 117.196 97.8085 117.196C98.7001 117.196 99.5609 117.398 100.393 117.786C100.699 117.672 101.074 117.586 101.51 117.559L101.748 117.553C104.399 117.553 105.719 119.519 106.776 121.093L106.78 121.099C106.956 121.374 107.13 121.627 107.313 121.884C108.241 123.185 109.449 125.085 109.5 125.17L110.045 126.019L109.377 126.794C108.862 127.388 108.086 128.083 106.757 128.083C106.485 128.083 106.188 128.053 105.86 127.991C105.579 127.938 105.321 127.855 105.075 127.753C105.036 128.012 104.98 128.322 104.933 128.589ZM76.5388 124.148L76.3052 123.564C76.1371 123.185 76.1597 122.773 76.4814 122.549L78.3772 121.247L81.5436 121.851C81.5436 121.851 80.9718 121.137 81.0271 120.183L78.0042 119.546L75.1534 121.272C73.9298 122.184 73.8417 123.67 74.2475 124.554L74.6246 125.38C74.6246 125.38 76.3851 124.66 76.5388 124.148ZM102.613 133.381L103.587 128.334C103.695 127.783 103.798 127.045 103.798 127.045C103.743 126.99 103.678 126.927 103.605 126.856C103.168 126.431 102.439 125.724 102 124.893C101.638 124.2 101.57 123.681 101.493 123.095C101.425 122.57 101.349 121.992 101.049 121.186C101.049 121.186 101.244 120.791 101.695 120.791C101.764 120.791 101.842 120.799 101.916 120.819C102.507 120.986 102.911 121.984 103.367 123.11C103.984 124.636 104.698 126.399 106.104 126.657C106.345 126.704 106.565 126.721 106.757 126.721C107.467 126.721 107.887 126.423 108.34 125.888C108.34 125.888 107.11 123.967 106.194 122.669C106 122.399 105.813 122.121 105.626 121.843C104.636 120.37 103.662 118.92 101.748 118.92C101.695 118.92 101.629 118.92 101.574 118.928C100.824 118.963 100.362 119.328 100.362 119.328C99.4422 118.753 98.5813 118.557 97.8086 118.557C96.9316 118.557 96.1743 118.803 95.5921 118.993C95.2285 119.111 94.9332 119.208 94.7197 119.208H94.6992L89.6242 118.706C88.8289 118.632 88.1997 117.837 87.9742 117.523C87.9189 117.439 87.8881 117.388 87.8881 117.388C87.8881 117.253 87.8881 117.111 87.8799 116.986C87.7078 112.853 84.4918 111.085 83.346 111.056C83.346 111.056 83.4813 110.273 83.1718 109.971L82.0506 111.323L78.3776 109.488L81.0012 112.537L78.7814 115.018C78.5006 115.301 78.5354 115.681 78.6523 115.842L79.6115 116.686L80.829 115.954C80.8885 115.907 81.0012 115.895 81.1324 115.895C81.288 115.895 81.4799 115.913 81.6862 115.933C81.9257 115.956 82.1844 115.981 82.4278 115.981C82.9238 115.981 83.3522 115.876 83.4034 115.413C83.3576 115.876 83.1955 116.441 83.0172 117.063C82.605 118.5 82.1065 120.237 82.7619 121.698L83.4588 123.281L78.9679 122.635L76.867 126.168C76.2173 127.343 76.1168 128.614 76.7379 129.307L77.525 130.286C77.525 130.286 78.6277 129.124 78.8736 128.357L78.517 127.967C78.2157 127.636 78.2321 127.343 78.4166 126.99L79.7325 124.817L85.0329 126.058L85.3158 125.584C85.6745 124.989 86.191 124.811 86.7588 124.811C86.9945 124.811 87.2343 124.838 87.4823 124.879C88.4661 125.072 90.0833 125.329 91.7026 125.329C93.4776 125.329 95.2444 125.013 96.1832 123.967C97.166 125.417 98.6662 126.243 99.8545 126.897C100.986 127.52 101.834 127.987 101.685 128.689L100.662 133.538C101.338 133.511 101.992 133.466 102.613 133.381ZM97.0338 133.602C97.5974 133.58 98.2307 133.572 98.9132 133.572C98.9132 133.572 100.545 128.826 100.637 128.675C99.7227 128.275 97.827 127.273 97.0932 126.814C97.2513 127.05 97.4836 127.297 97.7164 127.544C98.1961 128.053 98.6783 128.564 98.5197 128.993L97.0338 133.602ZM77.0125 84.0214L76.8014 92.0332L77.7175 92.1739L79.9555 84.4823L78.8201 82.1183L77.0125 84.0214ZM79.2994 95.7792C78.9284 95.5447 78.3956 95.1347 78.0984 94.5167C77.7623 93.8048 77.2766 93.4744 76.5695 93.4744C75.6472 93.4744 74.6635 94.0251 74.2393 94.2842C73.9031 96.2606 75.3665 98.0514 76.3481 98.4125C77.2376 98.7347 78.3177 98.802 78.871 98.802C78.8784 98.7779 78.8873 98.7515 78.8969 98.7229C78.9142 98.6716 78.9338 98.6133 78.951 98.5491C78.9981 98.388 79.0432 98.2228 79.0801 98.0473C79.2338 97.2519 79.2891 96.3565 79.2994 95.7792ZM92.7601 101.193C94.0596 100.29 97.6404 97.6888 99.028 96.6709C98.0175 95.2022 97.9212 93.4581 98.1487 92.2341C97.4867 91.8119 96.9824 91.3325 96.5787 90.8266C95.0444 92.4918 92.1785 95.2673 91.5243 95.9008C91.4549 95.9681 91.4104 96.0112 91.395 96.0263L91.1921 96.2303L80.6875 96.063C80.6793 97.1013 80.5112 97.9805 80.3473 98.6272C80.3314 98.6916 80.314 98.7574 80.2966 98.8239C80.2847 98.869 80.2728 98.9143 80.2612 98.9597L92.7601 101.193ZM86.4021 81.1677C85.0063 80.6619 83.5346 79.7357 82.0301 78.2507H66.2333C66.9117 80.0621 67.4856 82.0225 67.4856 83.9726V104.104H102.539C100.787 102.305 100.815 100.027 101.256 98.5497C100.748 98.3049 100.328 98.0132 99.9525 97.6909C98.5813 98.6965 94.4041 101.724 93.3075 102.487L93.0738 102.64L79.3184 100.169H79.0376C78.7076 100.169 78.2259 100.155 77.6971 100.092C77.5496 100.71 77.0125 101.13 76.3997 101.13C76.33 101.13 76.2521 101.126 76.1804 101.112C75.8217 101.051 75.5101 100.869 75.3011 100.569C75.0858 100.275 75.0018 99.9245 75.0612 99.5655L75.1104 99.2677C73.6941 98.2743 72.3844 96.0528 72.9644 93.709L73.0198 93.4601L73.2227 93.3194C73.2493 93.2969 73.4871 93.1358 73.8417 92.9359L72.8435 92.7829C72.4684 92.7176 72.2163 92.3688 72.2757 92.0036C72.3393 91.6324 72.6918 91.3631 73.0608 91.4345L75.4425 91.8119L75.6597 83.4667L79.2036 79.7357L81.4152 84.3683L79.0807 92.3953L81.1836 92.7258C81.5546 92.7849 81.8067 93.1297 81.7514 93.5091C81.6961 93.8457 81.4091 94.0721 81.077 94.0721C81.0402 94.0721 81.0053 94.0721 80.9684 94.068L79.259 93.7947C79.2695 93.8186 79.2824 93.8375 79.2951 93.8564C79.3096 93.8778 79.3239 93.8991 79.3348 93.9273C79.5152 94.3046 79.921 94.5698 80.1588 94.6881L90.6429 94.8534L90.6856 94.8118C91.1553 94.3552 92.2251 93.3151 93.3218 92.2138C90.7392 91.2407 89.8025 89.0295 89.6447 87.5587C88.2038 86.9468 87.2076 86.0308 86.6542 84.8416C85.9819 83.3667 86.2197 81.8878 86.4021 81.1677ZM89.2838 50.961L80.1361 47.8726L82.5465 61.7337L89.2838 65.2627V50.961ZM90.0361 39.5173C96.55 39.5173 102.453 42.6567 102.453 46.1469L102.326 47.0057L99.7229 61.8683L102.326 63.3779L109.098 67.3067H109.074C109.074 67.3067 110.596 68.0839 111.291 68.5633C113.88 70.34 114.421 72.9388 112.925 74.0118C112.552 71.8944 110.873 69.6832 107.727 69.6832C105.458 69.6832 103.732 70.8418 102.326 72.5941C101.976 73.0347 101.635 73.5059 101.313 74.0118C100.92 74.6523 100.53 75.2133 100.141 75.7518H117.561C116.276 78.3139 115.063 81.025 115.063 83.9726V122.335C115.063 131.622 107.897 136.051 100.131 136.051C99.6786 136.051 99.2558 136.049 98.8592 136.048C93.9912 136.03 93.0696 136.027 90.0238 139.062C86.9649 136.027 86.0422 136.03 81.1773 136.048C80.781 136.049 80.3585 136.051 79.9066 136.051C72.1465 136.051 64.9706 131.622 64.9706 122.335V83.9726C64.9706 81.025 63.7552 78.3139 62.4741 75.7518H79.8923C79.5008 75.2133 79.1073 74.6523 78.7158 74.0118C78.4001 73.5059 78.0578 73.0347 77.6971 72.5941C76.3053 70.8479 74.5754 69.6832 72.3085 69.6832C69.1581 69.6832 67.4774 71.8944 67.1084 74.0118C65.6142 72.9388 66.1615 70.34 68.7359 68.5633C69.441 68.0839 70.9618 67.3067 70.9618 67.3067H70.9372L77.6971 63.3779L80.3125 61.8683L77.7094 47.0057L77.5802 46.1469C77.5802 42.6567 83.4833 39.5173 89.9972 39.5173H90.0136H90.03H90.0361Z" fill="#231F20"/>
</svg>