<svg width="35" height="70" viewBox="0 0 35 70" fill="none" xmlns="http://www.w3.org/2000/svg">
<path d="M17.5001 1.45825C10.2813 1.45825 5.10425 7.3645 5.10425 14.5833C5.10425 21.802 13.4897 30.1145 16.4792 33.1041C16.609 33.2455 16.7668 33.3585 16.9425 33.4357C17.1182 33.513 17.3081 33.5529 17.5001 33.5529C17.692 33.5529 17.8819 33.513 18.0576 33.4357C18.2334 33.3585 18.3911 33.2455 18.5209 33.1041C21.5105 30.1145 29.8959 21.9478 29.8959 14.5833C29.8959 7.21867 24.7188 1.45825 17.5001 1.45825ZM21.6563 13.6353L20.1251 15.0937L20.4897 17.3541C20.4991 17.4892 20.4741 17.6244 20.4171 17.7472C20.3602 17.8701 20.273 17.9765 20.1638 18.0566C20.0546 18.1366 19.927 18.1878 19.7927 18.2052C19.6584 18.2226 19.5219 18.2057 19.3959 18.1562L17.5001 16.7708L15.6042 18.1562C15.4782 18.2057 15.3417 18.2226 15.2075 18.2052C15.0732 18.1878 14.9455 18.1366 14.8363 18.0566C14.7271 17.9765 14.64 17.8701 14.583 17.7472C14.526 17.6244 14.5011 17.4892 14.5105 17.3541L14.8751 15.0937L13.3438 13.6353C13.2518 13.5301 13.1889 13.4026 13.1614 13.2655C13.1338 13.1284 13.1426 12.9865 13.1868 12.8538C13.231 12.7212 13.3091 12.6024 13.4134 12.5092C13.5177 12.4161 13.6445 12.3518 13.7813 12.3228L15.8959 12.0312L16.8438 9.91658C16.9035 9.7933 16.9968 9.68933 17.1128 9.61659C17.2289 9.54384 17.3631 9.50525 17.5001 9.50525C17.6371 9.50525 17.7713 9.54384 17.8873 9.61659C18.0034 9.68933 18.0966 9.7933 18.1563 9.91658L19.1042 12.0312L21.2188 12.3228C21.3556 12.3518 21.4824 12.4161 21.5867 12.5092C21.691 12.6024 21.7691 12.7212 21.8134 12.8538C21.8576 12.9865 21.8663 13.1284 21.8388 13.2655C21.8113 13.4026 21.7484 13.5301 21.6563 13.6353Z" fill="#7D7D7D"/>
</svg>
