<svg width="35" height="70" viewBox="0 0 35 70" fill="none" xmlns="http://www.w3.org/2000/svg">
<path d="M16.8477 32.7661L16.8404 32.7581L16.8328 32.7505L16.7478 32.6655C15.2316 31.1497 12.4726 28.3912 10.0733 25.1331C7.61456 21.7944 5.60425 18.023 5.60425 14.5833C5.60425 7.60236 10.5943 1.95825 17.5001 1.95825C24.4094 1.95825 29.3959 7.46028 29.3959 14.5833C29.3959 18.0967 27.3846 21.8686 24.9277 25.1868C22.6131 28.3127 19.9645 30.9565 18.4172 32.501C18.3304 32.5877 18.247 32.6709 18.1674 32.7505L18.1598 32.7581L18.1525 32.7661C18.0695 32.8565 17.9687 32.9286 17.8564 32.978C17.7441 33.0274 17.6228 33.0529 17.5001 33.0529C17.3774 33.0529 17.2561 33.0274 17.1437 32.978C17.0314 32.9286 16.9306 32.8565 16.8477 32.7661ZM22.0012 13.9974L22.0177 13.9816L22.0328 13.9644C22.1822 13.7935 22.2843 13.5865 22.329 13.364C22.3737 13.1414 22.3595 12.9111 22.2877 12.6957C22.2159 12.4804 22.0891 12.2875 21.9198 12.1363C21.7505 11.9851 21.5446 11.8808 21.3226 11.8337L21.305 11.83L21.2871 11.8275L19.4471 11.5737L18.6126 9.71206L18.6096 9.7053L18.6063 9.69864C18.5057 9.49082 18.3485 9.31556 18.1529 9.19293C17.9572 9.0703 17.731 9.00525 17.5001 9.00525C17.2692 9.00525 17.0429 9.0703 16.8473 9.19293C16.6516 9.31556 16.4945 9.49082 16.3938 9.69864L16.3906 9.7053L16.3876 9.71206L15.553 11.5737L13.713 11.8275L13.6952 11.83L13.6776 11.8337C13.4555 11.8808 13.2497 11.9851 13.0804 12.1363C12.9111 12.2875 12.7842 12.4804 12.7125 12.6957C12.6407 12.9111 12.6264 13.1414 12.6712 13.364C12.7159 13.5865 12.818 13.7935 12.9674 13.9644L12.9824 13.9816L12.999 13.9974L14.3395 15.2741L14.0169 17.2745L14.0133 17.2968L14.0117 17.3194C13.9964 17.5387 14.037 17.7582 14.1294 17.9576C14.2219 18.157 14.3634 18.3298 14.5406 18.4598C14.7179 18.5897 14.9252 18.6727 15.1431 18.701C15.3611 18.7293 15.5827 18.7019 15.7873 18.6215L15.8472 18.5979L15.8993 18.5599L17.5001 17.39L19.1009 18.5599L19.1529 18.5979L19.2129 18.6215C19.4174 18.7019 19.639 18.7293 19.857 18.701C20.075 18.6727 20.2823 18.5897 20.4595 18.4598C20.6368 18.3298 20.7782 18.157 20.8707 17.9576C20.9632 17.7582 21.0037 17.5387 20.9885 17.3194L20.9869 17.2968L20.9833 17.2745L20.6606 15.2741L22.0012 13.9974Z" fill="#343436" stroke="#DEDEE0"/>
</svg>
