<svg width="25" height="24" viewBox="0 0 25 24" fill="none" xmlns="http://www.w3.org/2000/svg">
<path fill-rule="evenodd" clip-rule="evenodd" d="M11.2482 0.775802C11.708 -0.258601 13.271 -0.258601 13.7308 0.775802L16.1526 6.22481C16.3479 6.66452 16.8062 6.95096 17.3143 6.95096H23.6829C24.854 6.95096 25.4404 8.27826 24.6123 9.05452L19.4615 13.8835C19.1383 14.1865 19.0158 14.6299 19.1413 15.042L21.184 21.7445C21.5289 22.8763 20.1828 23.7975 19.1381 23.1446L13.1877 19.4255C12.7649 19.1613 12.2141 19.1613 11.7913 19.4256L5.85067 23.1385C4.8027 23.7934 3.4522 22.8692 3.79822 21.7339L5.83764 15.042C5.96322 14.6299 5.84063 14.1865 5.51742 13.8835L0.392004 9.07838C-0.445401 8.2933 0.147684 6.95096 1.33197 6.95096H7.66459C8.17271 6.95096 8.63099 6.66452 8.82642 6.22481L11.2482 0.775802Z" fill="#FFDD2D"/>
</svg>
