<svg width="19" height="19" viewBox="0 0 19 19" fill="none" xmlns="http://www.w3.org/2000/svg">
<path fill-rule="evenodd" clip-rule="evenodd" d="M9.5 0C7.71808 0 6.22134 0.09424 4.98757 0.368429C3.74302 0.645021 2.7086 1.1172 1.9129 1.9129C1.1172 2.7086 0.645021 3.74302 0.368429 4.98757C0.09424 6.22134 0 7.71808 0 9.5C0 11.2819 0.09424 12.7786 0.368429 14.0124C0.645021 15.257 1.1172 16.2914 1.9129 17.0871C2.7086 17.8828 3.74302 18.3549 4.98757 18.6316C6.22134 18.9058 7.71808 19 9.5 19C11.2819 19 12.7786 18.9058 14.0124 18.6316C15.257 18.3549 16.2914 17.8828 17.0871 17.0871C17.8828 16.2914 18.3549 15.257 18.6316 14.0124C18.9058 12.7786 19 11.2819 19 9.5C19 7.71808 18.9058 6.22134 18.6316 4.98757C18.3549 3.74302 17.8828 2.7086 17.0871 1.9129C16.2914 1.1172 15.257 0.645021 14.0124 0.368429C12.7786 0.09424 11.2819 0 9.5 0ZM8.55 4.75C8.02532 4.75 7.6 5.17533 7.6 5.7V8.55H6.65C6.12533 8.55 5.7 8.97532 5.7 9.5C5.7 10.0247 6.12533 10.45 6.65 10.45H7.6V11.4H6.65C6.12533 11.4 5.7 11.8253 5.7 12.35C5.7 12.8747 6.12533 13.3 6.65 13.3H7.6V14.25C7.6 14.7747 8.02532 15.2 8.55 15.2C9.07469 15.2 9.5 14.7747 9.5 14.25V13.3H12.35C12.8747 13.3 13.3 12.8747 13.3 12.35C13.3 11.8253 12.8747 11.4 12.35 11.4H9.5V10.45H10.925C11.8588 10.45 12.6449 10.133 13.1999 9.57799C13.7459 9.03193 14.0125 8.31003 14.0125 7.6C14.0125 6.89001 13.7459 6.16806 13.1999 5.622C12.6449 5.06701 11.8588 4.75 10.925 4.75H8.55Z" fill="#FFDD2D"/>
<path fill-rule="evenodd" clip-rule="evenodd" d="M9.5 8.55002V6.65002H10.925C11.4162 6.65002 11.6989 6.80802 11.8564 6.96553C12.0228 7.13197 12.1125 7.36002 12.1125 7.60002C12.1125 7.83999 12.0228 8.06809 11.8564 8.23453C11.6989 8.39204 11.4162 8.55002 10.925 8.55002H9.5Z" fill="#FFDD2D"/>
</svg>
