<svg width="30" height="30" viewBox="0 0 30 30" fill="none" xmlns="http://www.w3.org/2000/svg">
<path d="M20.0757 3.06753C20.4272 3.41914 20.6246 3.89597 20.6246 4.39315C20.6246 4.89034 20.4272 5.36716 20.0757 5.71878L10.7944 15L20.0757 24.2813C20.4172 24.6349 20.6062 25.1085 20.6019 25.6002C20.5976 26.0918 20.4005 26.562 20.0528 26.9097C19.7052 27.2573 19.2349 27.4545 18.7433 27.4588C18.2517 27.4631 17.778 27.2741 17.4244 26.9325L6.81753 16.3257C6.46602 15.974 6.26855 15.4972 6.26855 15C6.26855 14.5028 6.46602 14.026 6.81753 13.6744L17.4244 3.06753C17.776 2.71602 18.2528 2.51855 18.75 2.51855C19.2472 2.51855 19.724 2.71602 20.0757 3.06753Z" fill="white"/>
</svg>
